<svg xmlns="http://www.w3.org/2000/svg" viewBox="0 0 128 128" fill="none">
  <defs>
    <linearGradient id="dcsMark" x1="64" y1="8" x2="64" y2="120" gradientUnits="userSpaceOnUse">
      <stop offset="0" stop-color="#2EE6A6"></stop>
      <stop offset="0.55" stop-color="#00B4D8"></stop>
      <stop offset="1" stop-color="#0891B2"></stop>
    </linearGradient>
  </defs>
  
  <path d="M64 10 L118 112 L10 112 Z" stroke="url(#dcsMark)" stroke-width="5" stroke-linejoin="round"></path>
  
  <path d="M64 52 L90 98 L38 98 Z" stroke="url(#dcsMark)" stroke-width="3" stroke-linejoin="round"></path>
  
  <g stroke="url(#dcsMark)" stroke-width="1.6" stroke-linecap="round" fill="none" opacity="0.9">
    <path d="M28 96 L28 86 L44 86"></path>
    <path d="M22 108 L40 108 L40 100"></path>
    <path d="M100 96 L100 86 L84 86"></path>
    <path d="M106 108 L88 108 L88 100"></path>
    <path d="M56 28 L56 42"></path>
    <path d="M72 28 L72 42"></path>
    <path d="M64 14 L64 24"></path>
  </g>
  <g fill="url(#dcsMark)">
    <circle cx="28" cy="86" r="2"></circle>
    <circle cx="44" cy="86" r="2"></circle>
    <circle cx="40" cy="100" r="2"></circle>
    <circle cx="100" cy="86" r="2"></circle>
    <circle cx="84" cy="86" r="2"></circle>
    <circle cx="88" cy="100" r="2"></circle>
    <circle cx="56" cy="42" r="2"></circle>
    <circle cx="72" cy="42" r="2"></circle>
    <circle cx="64" cy="24" r="2"></circle>
  </g>
</svg>